<svg width="170" height="170" viewBox="0 0 170 170" fill="none" xmlns="http://www.w3.org/2000/svg">
<rect width="170" height="170" rx="16" fill="#003049"/>
<g clip-path="url(#clip0_2005_2925)">
<path d="M32.401 73.3579C35.9474 65.2179 38.1346 61.4346 42.368 56.0203C36.9319 52.5074 33.4061 51.4975 29.9721 48.3147C26.8888 44.5755 26.1778 42.2441 27.0406 37.5939C28.6107 32.0641 29.7798 29.5009 33.0711 25.9518C42.3032 15.1215 48.3107 10.9826 60.2081 6.35278C59.8878 7.70347 59.5712 8.3206 58.7843 9.2005C49.8617 14.012 45.7488 17.9132 39.5203 26.3705C36.397 32.0179 35.6144 34.7103 36.0863 38.599C37.6009 43.5749 40.518 45.6578 49.3198 48.1472C61.7028 37.4592 70.5102 31.4797 85 29.8046V39.1015C72.2637 41.7522 64.4216 46.1022 52.67 58.0304C42.9895 69.9007 39.2087 77.1574 38.6827 92.3705C44.4458 73.1838 50.1306 65.7424 64.8147 58.6167C73.3172 55.6596 77.6784 55.7893 85 58.0304V67.4112C76.7904 64.7489 71.902 65.0574 64.8147 69.0863C49.6501 80.2071 45.5059 88.9456 48.7179 109.024C48.7231 109.057 48.7283 109.089 48.7335 109.122C53.0069 117.298 57.4695 120.968 67.1837 123.164C69.0386 123.583 71.0849 123.949 73.3579 124.282H84.8325V133.327C76.6322 133.703 72.9679 133.609 69.9239 132.825H63.3071L56.0203 121.853L40.2741 114.231L33.4898 110.378C31.2113 105.193 30.2976 102.245 29.4695 96.8934L29.8883 83.9949L17.0736 74.5304L12.5508 82.9898L17.8274 100.662V104.766L15.0635 117.246L20.0051 120.764L16.8223 127.716L4.76142 119.843L11.1269 102.421L2.5 83.9949L15.0635 62.3858L32.401 73.3579Z" fill="#EAE2B7"/>
<path d="M137.546 73.3579C134.003 65.2179 131.818 61.4346 127.589 56.0203C133.019 52.5076 136.542 51.4975 139.972 48.3147C143.052 44.5755 143.763 42.2441 142.9 37.5939C141.332 32.0641 140.164 29.5009 136.876 25.9518C127.653 15.1215 121.652 10.9826 109.767 6.35278C110.087 7.70347 110.403 8.3206 111.189 9.2005C120.103 14.012 124.211 17.9132 130.434 26.3705C133.554 32.0179 134.336 34.7105 133.864 38.599C132.351 43.5749 129.437 45.6578 120.644 48.1472C108.273 37.4592 99.475 31.4797 84.9997 29.8046V39.1015C97.7231 41.7522 105.557 46.1022 117.297 58.0304C126.968 69.9007 130.745 77.1574 131.27 92.3705C125.513 73.184 119.834 65.7424 105.165 58.6167C96.6708 55.6596 92.3142 55.7893 84.9997 58.0304L85 67.4112C93.2013 64.7489 98.0845 65.0574 105.165 69.0863C120.311 80.2053 124.452 88.9426 121.247 109.014C121.241 109.05 121.235 109.086 121.23 109.122C116.95 117.319 112.48 120.987 102.724 123.181C100.89 123.593 98.8706 123.953 96.6301 124.282H84.7488V133.327C92.9408 133.703 97.0198 133.609 100.061 132.825H106.671L113.95 121.853L129.68 114.231L136.458 110.378C138.734 105.193 139.647 102.245 140.474 96.8934L140.056 83.9949L152.857 74.5304L157.376 82.9898L152.104 100.662V104.766L154.866 117.246L149.929 120.764L153.109 127.716L165.157 119.843L158.798 102.421L167.416 83.9949L154.866 62.3858L137.546 73.3579Z" fill="#EAE2B7"/>
<path d="M50.0735 136.091C50.0735 140.208 46.7362 143.546 42.6192 143.546C38.5023 143.546 35.1649 140.208 35.1649 136.091C35.1649 131.974 38.5023 128.637 42.6192 128.637C46.7362 128.637 50.0735 131.974 50.0735 136.091Z" fill="#EAE2B7"/>
<path d="M134.584 136.091C134.584 140.208 131.246 143.546 127.129 143.546C123.012 143.546 119.675 140.208 119.675 136.091C119.675 131.974 123.012 128.637 127.129 128.637C131.246 128.637 134.584 131.974 134.584 136.091Z" fill="#EAE2B7"/>
<path d="M73.5253 91.198C73.5253 91.574 73.4833 91.9404 73.4037 92.2923C73.1997 93.1946 72.7489 94.0031 72.1261 94.6434C71.2282 95.5664 69.9729 96.1396 68.5837 96.1396C66.8022 96.1396 65.2408 95.1968 64.3713 93.783C63.9225 93.0532 63.658 92.1977 63.6428 91.2817C63.6423 91.2539 63.6421 91.2259 63.6421 91.198C63.6421 88.4689 65.8546 86.2563 68.5837 86.2563C71.3128 86.2563 73.5253 88.4689 73.5253 91.198Z" fill="#EAE2B7"/>
<path d="M72.8553 97.2284C72.8553 99.9575 70.6428 102.17 67.9137 102.17C65.1846 102.17 62.972 99.9575 62.972 97.2284C62.972 96.8467 63.0153 96.475 63.0973 96.1182C63.3029 95.2223 63.7522 94.4194 64.3713 93.783C65.2691 92.86 66.5245 92.2868 67.9137 92.2868C69.6952 92.2868 71.2566 93.2296 72.1261 94.6434C72.5886 95.3955 72.8553 96.2808 72.8553 97.2284Z" fill="#EAE2B7"/>
<path d="M73.4038 92.2924C73.1998 93.1946 72.749 94.0032 72.1262 94.6434C72.5887 95.3955 72.8554 96.2808 72.8554 97.2285L73.4038 92.2924Z" fill="#EAE2B7"/>
<path d="M63.0974 96.1182C63.303 95.2223 63.7522 94.4194 64.3713 93.783C63.9226 93.0532 63.6581 92.1977 63.6428 91.2817L63.0974 96.1182Z" fill="#EAE2B7"/>
<path d="M74.0278 111.216C78.0488 112.075 80.392 112.33 84.7486 112.388C93.3749 112.346 96.3303 111.056 98.1497 106.442C98.9256 107.151 98.8197 107.698 98.8197 109.876C97.497 114.102 94.7731 115.419 87.5126 116.492C80.1538 116.37 77.2561 115.163 74.0278 111.216Z" fill="#EAE2B7"/>
<path d="M102.058 84.6809C102.245 85.0072 102.39 85.3459 102.496 85.6908C102.768 86.5751 101.511 85.1298 101.289 85.995C100.969 87.2421 101.432 90.7346 100.227 91.4254C98.6814 92.3112 95.5903 89.8985 94.1329 89.1042C93.3806 88.6941 93.9936 90.4545 93.5249 89.6672C93.5106 89.6432 93.4965 89.6191 93.4826 89.595C92.1256 87.227 92.9451 84.2075 95.3131 82.8504C97.681 81.4934 100.701 82.3129 102.058 84.6809Z" fill="#EAE2B7"/>
<path d="M103.207 87.8753C104.564 90.2431 103.745 93.2629 101.377 94.6197C99.0086 95.9768 95.989 95.1573 94.632 92.7893C94.4422 92.4582 94.295 92.1141 94.1886 91.7637C93.9216 90.8842 93.9122 89.9644 94.133 89.1042C94.4529 87.8571 95.2572 86.7356 96.4624 86.0448C98.0082 85.159 99.8316 85.2007 101.289 85.995C102.064 86.4177 102.736 87.053 103.207 87.8753Z" fill="#EAE2B7"/>
<path d="M102.496 85.6908C102.768 86.5751 101.511 85.1298 101.289 85.995C102.064 86.4176 102.736 87.053 103.207 87.8753L102.496 85.6908Z" fill="#EAE2B7"/>
<path d="M94.1886 91.7637C93.9216 90.8842 93.9122 89.9644 94.133 89.1042C93.3807 88.6942 93.9936 90.4546 93.5249 89.6673L94.1886 91.7637Z" fill="#EAE2B7"/>
<path fill-rule="evenodd" clip-rule="evenodd" d="M154.853 136.008C154.853 151.273 142.478 163.647 127.213 163.647C111.948 163.647 99.5737 151.273 99.5737 136.008C99.5737 131.378 100.712 127.014 102.724 123.181C112.48 120.987 116.95 117.319 121.23 109.122C121.235 109.086 121.241 109.05 121.247 109.014C123.168 108.591 125.165 108.368 127.213 108.368C142.478 108.368 154.853 120.743 154.853 136.008ZM145.137 136.008C145.137 145.907 137.112 153.931 127.213 153.931C117.314 153.931 109.289 145.907 109.289 136.008C109.289 126.109 117.314 118.084 127.213 118.084C137.112 118.084 145.137 126.109 145.137 136.008Z" fill="#EAE2B7"/>
<path fill-rule="evenodd" clip-rule="evenodd" d="M70.3427 136.008C70.3427 151.273 57.968 163.647 42.7031 163.647C27.4381 163.647 15.0635 151.273 15.0635 136.008C15.0635 120.743 27.4381 108.368 42.7031 108.368C44.7688 108.368 46.7815 108.595 48.7179 109.024L48.7335 109.122C53.0069 117.298 57.4695 120.968 67.1837 123.164C69.2011 127.001 70.3427 131.371 70.3427 136.008ZM60.6269 136.008C60.6269 145.907 52.6021 153.931 42.7031 153.931C32.8041 153.931 24.7792 145.907 24.7792 136.008C24.7792 126.109 32.8041 118.084 42.7031 118.084C52.6021 118.084 60.6269 126.109 60.6269 136.008Z" fill="#EAE2B7"/>
</g>
<defs>
<clipPath id="clip0_2005_2925">
<rect width="165" height="157.294" fill="white" transform="translate(2.5 6.35278)"/>
</clipPath>
</defs>
</svg>
