<svg width="45" height="43" viewBox="0 0 45 43" fill="none" xmlns="http://www.w3.org/2000/svg">
<path d="M12.9746 35.3832C12.9746 36.5061 12.0644 37.4162 10.9416 37.4162C9.81882 37.4162 8.90863 36.5061 8.90863 35.3832C8.90863 34.2604 9.81882 33.3503 10.9416 33.3503C12.0644 33.3503 12.9746 34.2604 12.9746 35.3832Z" fill="#EAE2B7"/>
<path d="M36.0228 35.3832C36.0228 36.5061 35.1127 37.4162 33.9898 37.4162C32.867 37.4162 31.9569 36.5061 31.9569 35.3832C31.9569 34.2604 32.867 33.3503 33.9898 33.3503C35.1127 33.3503 36.0228 34.2604 36.0228 35.3832Z" fill="#EAE2B7"/>
<path d="M19.5076 28.599C20.6042 28.8333 21.2433 28.9029 22.4315 28.9188C24.7841 28.9072 25.5901 28.5554 26.0863 27.297C26.2979 27.4903 26.269 27.6396 26.269 28.2335C25.9083 29.3861 25.1654 29.7453 23.1853 30.0381C21.1783 30.0046 20.3881 29.6756 19.5076 28.599Z" fill="#EAE2B7"/>
<path d="M19.3706 23.1396C19.3706 23.2422 19.3591 23.3421 19.3374 23.4381L19.1878 24.7843C19.1878 25.5286 18.5844 26.132 17.8401 26.132C17.0958 26.132 16.4924 25.5286 16.4924 24.7843C16.4924 24.6801 16.5042 24.5788 16.5266 24.4815L16.6753 23.1624L16.6751 23.1396C16.6751 22.3953 17.2785 21.7919 18.0228 21.7919C18.7671 21.7919 19.3706 22.3953 19.3706 23.1396Z" fill="#EAE2B7"/>
<path d="M27.1521 21.3622C27.2031 21.4512 27.2428 21.5436 27.2717 21.6376L27.4655 22.2334C27.8356 22.8792 27.6121 23.7028 26.9663 24.0728C26.3205 24.4429 25.497 24.2194 25.1269 23.5736C25.0751 23.4833 25.035 23.3894 25.006 23.2939L24.825 22.7221L24.8135 22.7024C24.4434 22.0566 24.6669 21.2331 25.3127 20.863C25.9585 20.4929 26.782 20.7164 27.1521 21.3622Z" fill="#EAE2B7"/>
<path fill-rule="evenodd" clip-rule="evenodd" d="M8.15482 18.2741C9.12203 16.0541 9.71854 15.0223 10.8731 13.5457C9.39052 12.5876 8.42893 12.3122 7.49239 11.4442C6.6515 10.4244 6.45757 9.78853 6.69289 8.5203C7.1211 7.01219 7.43994 6.31311 8.33756 5.34518C10.8554 2.39146 12.4938 1.26268 15.7386 0C15.6512 0.368368 15.5649 0.536679 15.3503 0.77665C12.9168 2.08889 11.7951 3.15285 10.0964 5.45939C9.24465 6.99958 9.0312 7.73388 9.1599 8.79442C9.57298 10.1515 10.3685 10.7195 12.769 11.3985C16.1462 8.48357 18.5482 6.85279 22.5 6.39594C26.4478 6.85279 28.8472 8.48357 32.2211 11.3985C34.6191 10.7195 35.4139 10.1515 35.8265 8.79442C35.9551 7.73392 35.7419 6.99958 34.8909 5.45939C33.194 3.15285 32.0734 2.08889 29.6424 0.77665C29.428 0.536679 29.3418 0.368369 29.2545 0C32.496 1.26268 34.1327 2.39146 36.648 5.34518C37.5448 6.31311 37.8633 7.01219 38.291 8.5203C38.5261 9.78853 38.3324 10.4244 37.4924 11.4442C36.5568 12.3122 35.5961 12.5877 34.1151 13.5457C35.2684 15.0223 35.8644 16.0541 36.8306 18.2741L41.5542 15.2817L44.9772 21.1751L42.6267 26.2005L44.361 30.9518L41.1831 33.0284C41.4218 33.7627 41.5508 34.5465 41.5508 35.3604C41.5508 39.5236 38.1759 42.8985 34.0127 42.8985C29.8495 42.8985 26.4746 39.5236 26.4746 35.3604C26.4746 35.0741 26.4906 34.7916 26.5217 34.5136C25.7025 34.7075 24.5935 34.7282 22.4429 34.63C20.2739 34.729 19.2712 34.7072 18.455 34.5091C18.4864 34.7885 18.5025 35.0726 18.5025 35.3604C18.5025 39.5236 15.1276 42.8985 10.9645 42.8985C6.8013 42.8985 3.4264 39.5236 3.4264 35.3604C3.4264 34.5457 3.55564 33.7612 3.79473 33.0263L0.616751 30.9518L2.35279 26.2005L0 21.1751L3.4264 15.2817L8.15482 18.2741ZM13.6827 14.0939C16.8877 10.8408 19.0265 9.6544 22.5 8.93147C25.97 9.6544 28.1065 10.8408 31.3083 14.0939C33.9458 17.3313 34.9758 19.3103 35.1191 23.4594C33.5489 18.2267 32.0001 16.1972 27.9995 14.2538C25.6829 13.4473 24.4948 13.4827 22.5 14.0939C20.5032 13.4827 19.3138 13.4473 16.9949 14.2538C12.9902 16.1972 11.4398 18.2266 9.86802 23.4594C10.0115 19.3103 11.0426 17.3313 13.6827 14.0939ZM16.9949 17.1091C18.9278 16.0104 20.261 15.9262 22.5 16.6523C24.7367 15.9262 26.0685 16.0104 27.9995 17.1091C32.1303 20.1416 33.2598 22.5245 32.3855 27.9984L32.3808 28.0279C31.2135 30.2635 29.9944 31.2639 27.3337 31.8622C26.8338 31.9747 26.2829 32.0729 25.6718 32.1624H22.4543H22.4315H19.3249C18.705 32.0717 18.1469 31.972 17.641 31.8576C14.9917 31.2588 13.7746 30.2578 12.6091 28.0279L12.6049 28.0013C11.7289 22.5253 12.8591 20.1421 16.9949 17.1091ZM7.46954 21.1751L7.35533 24.6929C7.5756 26.1165 7.81813 26.9166 8.40663 28.2674C6.8873 28.8154 5.59462 29.8376 4.70726 31.1555L3.4264 30.2437L4.1802 26.8401V25.7208L2.74112 20.901L3.97462 18.5939L7.46954 21.1751ZM37.5152 21.1751L37.6293 24.6929C37.4091 26.1174 37.1667 26.9177 36.5779 28.27C38.0949 28.819 39.3855 29.8409 40.2714 31.1578L41.5542 30.2437L40.8012 26.8401V25.7208L42.2388 20.901L41.0066 18.5939L37.5152 21.1751ZM34.0127 40.2487C36.7124 40.2487 38.901 38.0601 38.901 35.3604C38.901 32.6607 36.7124 30.4721 34.0127 30.4721C31.313 30.4721 29.1244 32.6607 29.1244 35.3604C29.1244 38.0601 31.313 40.2487 34.0127 40.2487ZM10.9645 40.2487C13.6642 40.2487 15.8528 38.0601 15.8528 35.3604C15.8528 32.6607 13.6642 30.4721 10.9645 30.4721C8.26474 30.4721 6.07614 32.6607 6.07614 35.3604C6.07614 38.0601 8.26474 40.2487 10.9645 40.2487Z" fill="#EAE2B7"/>
<path fill-rule="evenodd" clip-rule="evenodd" d="M36.0228 35.3832C36.0228 36.5061 35.1127 37.4162 33.9898 37.4162C32.867 37.4162 31.9569 36.5061 31.9569 35.3832C31.9569 34.2604 32.867 33.3503 33.9898 33.3503C35.1127 33.3503 36.0228 34.2604 36.0228 35.3832Z" fill="#EAE2B7"/>
<path fill-rule="evenodd" clip-rule="evenodd" d="M12.9746 35.3832C12.9746 36.5061 12.0644 37.4162 10.9416 37.4162C9.81882 37.4162 8.90863 36.5061 8.90863 35.3832C8.90863 34.2604 9.81882 33.3503 10.9416 33.3503C12.0644 33.3503 12.9746 34.2604 12.9746 35.3832Z" fill="#EAE2B7"/>
</svg>
