<svg width="165" height="158" viewBox="0 0 165 158" fill="none" xmlns="http://www.w3.org/2000/svg">
<g clip-path="url(#clip0_2036_1578)">
<path d="M47.5736 129.739C47.5736 133.856 44.2362 137.193 40.1193 137.193C36.0023 137.193 32.665 133.856 32.665 129.739C32.665 125.622 36.0023 122.284 40.1193 122.284C44.2362 122.284 47.5736 125.622 47.5736 129.739Z" fill="#003049"/>
<path d="M132.084 129.739C132.084 133.856 128.746 137.193 124.629 137.193C120.512 137.193 117.175 133.856 117.175 129.739C117.175 125.622 120.512 122.284 124.629 122.284C128.746 122.284 132.084 125.622 132.084 129.739Z" fill="#003049"/>
<path d="M71.5279 104.863C75.5489 105.722 77.8921 105.977 82.2487 106.036C90.875 105.993 93.8304 104.703 95.6497 100.089C96.4257 100.798 96.3198 101.345 96.3198 103.523C94.9971 107.749 92.2732 109.066 85.0127 110.14C77.6538 110.017 74.7562 108.81 71.5279 104.863Z" fill="#003049"/>
<path d="M71.0254 84.8452C71.0254 85.2212 70.9833 85.5876 70.9038 85.9395L70.3553 90.8756C70.3553 93.6047 68.1428 95.8173 65.4137 95.8173C62.6846 95.8173 60.4721 93.6047 60.4721 90.8756C60.4721 90.4939 60.5153 90.1222 60.5974 89.7654L61.1428 84.9289L61.1421 84.8452C61.1421 82.1161 63.3546 79.9035 66.0837 79.9035C68.8129 79.9035 71.0254 82.1161 71.0254 84.8452Z" fill="#003049"/>
<path d="M99.5577 78.3281C99.7446 78.6544 99.8902 78.9931 99.9962 79.338L100.707 81.5226C102.064 83.8903 101.245 86.9101 98.8765 88.2669C96.5086 89.624 93.489 88.8045 92.132 86.4365C91.9422 86.1054 91.795 85.7613 91.6886 85.4109L91.0249 83.3144L90.9827 83.2422C89.6257 80.8743 90.4451 77.8547 92.8131 76.4977C95.181 75.1407 98.2006 75.9601 99.5577 78.3281Z" fill="#003049"/>
<path fill-rule="evenodd" clip-rule="evenodd" d="M29.901 67.0051C33.4474 58.8651 35.6346 55.0819 39.868 49.6675C34.4319 46.1546 30.9061 45.1447 27.4721 41.9619C24.3888 38.2227 23.6778 35.8913 24.5406 31.2411C26.1107 25.7114 27.2798 23.1481 30.5711 19.599C39.8032 8.7687 45.8107 4.62982 57.7081 0C57.3878 1.35068 57.0712 1.96782 56.2843 2.84772C47.3617 7.65925 43.2488 11.5605 37.0203 20.0178C33.897 25.6651 33.1144 28.3576 33.5863 32.2462C35.1009 37.2222 38.018 39.305 46.8198 41.7944C59.2028 31.1064 68.0102 25.1269 82.5 23.4518C96.9753 25.1269 105.773 31.1064 118.144 41.7944C126.937 39.305 129.851 37.2222 131.364 32.2462C131.836 28.3577 131.054 25.6651 127.933 20.0178C121.711 11.5605 117.602 7.65925 108.689 2.84772C107.903 1.96782 107.587 1.35068 107.267 0C119.152 4.62982 125.153 8.7687 134.376 19.599C137.664 23.1481 138.832 25.7114 140.4 31.2411C141.262 35.8913 140.552 38.2227 137.472 41.9619C134.041 45.1447 130.519 46.1548 125.089 49.6675C129.318 55.0819 131.503 58.8651 135.046 67.0051L152.366 56.033L164.916 77.6421L156.298 96.0685L162.657 113.49L151.005 121.104C151.88 123.797 152.353 126.67 152.353 129.655C152.353 144.92 139.978 157.294 124.713 157.294C109.448 157.294 97.0736 144.92 97.0736 129.655C97.0736 128.605 97.1321 127.569 97.2461 126.55C94.2424 127.261 90.1762 127.337 82.2906 126.977C74.3376 127.34 70.6609 127.26 67.6683 126.533C67.7835 127.558 67.8426 128.599 67.8426 129.655C67.8426 144.92 55.468 157.294 40.203 157.294C24.9381 157.294 12.5635 144.92 12.5635 129.655C12.5635 126.668 13.0373 123.791 13.914 121.096L2.26142 113.49L8.6269 96.0685L0 77.6421L12.5635 56.033L29.901 67.0051ZM50.1701 51.6777C61.9216 39.7494 69.7637 35.3994 82.5 32.7487C95.2234 35.3994 103.057 39.7494 114.797 51.6777C124.468 63.5479 128.245 70.8046 128.77 86.0178C123.013 66.8312 117.334 59.3896 102.665 52.264C94.1708 49.3069 89.8144 49.4365 82.5 51.6777C75.1784 49.4365 70.8172 49.3069 62.3147 52.264C47.6306 59.3896 41.9458 66.831 36.1827 86.0178C36.7087 70.8046 40.4895 63.5479 50.1701 51.6777ZM62.3147 62.7335C69.402 58.7046 74.2904 58.3961 82.5 61.0584C90.7013 58.3961 95.5844 58.7047 102.665 62.7335C117.811 73.8525 121.952 82.5898 118.747 102.661L118.729 102.769C114.45 110.966 109.98 114.634 100.224 116.828C98.3904 117.24 96.3706 117.601 94.1301 117.929H82.3325H82.2487H70.8579C68.5849 117.596 66.5386 117.231 64.6837 116.811C54.9695 114.616 50.5069 110.945 46.2335 102.769L46.2179 102.672C43.0059 82.5928 47.1501 73.8543 62.3147 62.7335ZM27.3883 77.6421L26.9695 90.5406C27.7772 95.7604 28.6665 98.6941 30.8243 103.647C25.2534 105.656 20.5136 109.405 17.26 114.237L12.5635 110.893L15.3274 98.4137V94.3096L10.0508 76.637L14.5736 68.1777L27.3883 77.6421ZM137.556 77.6421L137.974 90.5406C137.167 95.7639 136.278 98.6981 134.119 103.657C139.681 105.67 144.413 109.417 147.662 114.245L152.366 110.893L149.604 98.4137V94.3096L154.876 76.637L150.357 68.1777L137.556 77.6421ZM124.713 147.579C134.612 147.579 142.637 139.554 142.637 129.655C142.637 119.756 134.612 111.731 124.713 111.731C114.814 111.731 106.789 119.756 106.789 129.655C106.789 139.554 114.814 147.579 124.713 147.579ZM40.203 147.579C50.102 147.579 58.1269 139.554 58.1269 129.655C58.1269 119.756 50.102 111.731 40.203 111.731C30.304 111.731 22.2792 119.756 22.2792 129.655C22.2792 139.554 30.304 147.579 40.203 147.579Z" fill="#003049"/>
<path fill-rule="evenodd" clip-rule="evenodd" d="M132.084 129.739C132.084 133.856 128.746 137.193 124.629 137.193C120.512 137.193 117.175 133.856 117.175 129.739C117.175 125.622 120.512 122.284 124.629 122.284C128.746 122.284 132.084 125.622 132.084 129.739Z" fill="#003049"/>
<path fill-rule="evenodd" clip-rule="evenodd" d="M47.5736 129.739C47.5736 133.856 44.2362 137.193 40.1193 137.193C36.0023 137.193 32.665 133.856 32.665 129.739C32.665 125.622 36.0023 122.284 40.1193 122.284C44.2362 122.284 47.5736 125.622 47.5736 129.739Z" fill="#003049"/>
</g>
<defs>
<clipPath id="clip0_2036_1578">
<rect width="165" height="157.294" fill="white"/>
</clipPath>
</defs>
</svg>
