<svg width="44" height="45" viewBox="0 0 44 45" fill="none" xmlns="http://www.w3.org/2000/svg">
<path d="M20.625 32.375V12.625C20.625 10.75 19.8333 10 17.8333 10H12.7917C10.7917 10 10 10.75 10 12.625V32.375C10 34.25 10.7917 35 12.7917 35H17.8333C19.8333 35 20.625 34.25 20.625 32.375Z" fill="#292D32"/>
<path d="M33.625 32.375V12.625C33.625 10.75 32.8333 10 30.8333 10H25.7917C23.8056 10 23 10.75 23 12.625V32.375C23 34.25 23.7917 35 25.7917 35H30.8333C32.8333 35 33.625 34.25 33.625 32.375Z" fill="#292D32"/>
</svg>
