<svg width="21" height="23" viewBox="0 0 21 23" fill="none" xmlns="http://www.w3.org/2000/svg">
<g clip-path="url(#clip0_2036_1580)">
<path fill-rule="evenodd" clip-rule="evenodd" d="M18.1887 4.03018C19.5485 4.81225 20.387 6.25841 20.387 7.82256V14.4432C20.387 16.0082 19.5485 17.4535 18.1887 18.2356L12.4307 21.5467C11.0709 22.3288 9.39465 22.3288 8.03489 21.5467L2.27681 18.2356C0.917038 17.4535 0.0793457 16.0082 0.0793457 14.4432V7.82256C0.0793457 6.25841 0.917038 4.81225 2.27681 4.03018L8.03489 0.719855C9.39465 -0.0622173 11.0709 -0.0622173 12.4307 0.719855L18.1887 4.03018ZM8.80573 2.22248L3.19827 5.44684C2.31488 5.95502 1.77165 6.893 1.77165 7.90936V14.3572C1.77165 15.3728 2.31488 16.3116 3.19827 16.8198L8.80573 20.0433C9.68912 20.5515 10.7764 20.5515 11.6598 20.0433L17.2673 16.8198C18.1507 16.3116 18.6947 15.3728 18.6947 14.3572V7.90936C18.6947 6.893 18.1507 5.95502 17.2673 5.44684L11.6598 2.22248C10.7764 1.7143 9.68912 1.7143 8.80573 2.22248ZM11.4051 4.02428L15.8297 6.5677C16.5548 6.98486 17.0024 7.75598 17.0024 8.59114V13.6788C17.0024 14.5132 16.5548 15.2843 15.8297 15.7014L11.4051 18.2457C10.68 18.6629 9.78558 18.6629 9.06042 18.2457L4.63588 15.7014C3.91073 15.2843 3.46396 14.5132 3.46396 13.6788V8.59114C3.46396 7.75598 3.91073 6.98486 4.63588 6.5677L9.06042 4.02428C9.78558 3.60712 10.68 3.60712 11.4051 4.02428ZM7.69473 13.6628H12.7717V8.60631H7.69473V13.6628Z" fill="#003049"/>
</g>
<defs>
<clipPath id="clip0_2036_1580">
<rect width="21" height="23" fill="white"/>
</clipPath>
</defs>
</svg>
